<?xml version="1.0" standalone="no"?>
<!DOCTYPE svg PUBLIC "-//W3C//DTD SVG 20010904//EN"
 "http://www.w3.org/TR/2001/REC-SVG-20010904/DTD/svg10.dtd">
<svg version="1.0" xmlns="http://www.w3.org/2000/svg"
 width="572.000000pt" height="572.000000pt" viewBox="0 0 572.000000 572.000000"
 preserveAspectRatio="xMidYMid meet">
<metadata>
Created by potrace 1.11, written by Peter Selinger 2001-2013
</metadata>
<g transform="translate(0.000000,572.000000) scale(0.100000,-0.100000)"
fill="#000000" stroke="none">
<path d="M3370 5713 c-87 -14 -191 -58 -410 -176 -36 -20 -105 -57 -155 -82
-49 -26 -112 -60 -140 -75 -27 -15 -93 -49 -145 -77 -52 -28 -133 -71 -180
-95 -47 -25 -164 -87 -260 -138 -96 -51 -202 -107 -235 -125 -33 -18 -109 -58
-170 -90 -60 -32 -135 -71 -165 -88 -30 -16 -102 -54 -160 -85 -58 -30 -172
-91 -255 -135 -172 -91 -257 -137 -405 -215 -355 -188 -380 -202 -446 -267
-48 -48 -91 -108 -124 -172 -147 -297 -50 -653 228 -834 115 -75 231 -107 374
-104 141 4 199 26 503 190 33 18 105 56 160 85 55 29 132 70 170 90 39 20 120
63 180 95 61 32 137 72 170 90 33 18 101 54 150 80 50 26 126 66 170 90 44 23
130 68 190 100 61 32 130 69 155 83 25 13 88 47 140 74 97 52 211 112 335 178
158 84 225 120 330 175 61 32 142 74 180 95 39 21 111 59 160 85 157 83 240
157 311 277 62 107 85 195 86 329 1 103 -14 170 -57 266 -89 194 -241 315
-465 370 -23 6 -191 10 -220 6z"/>
<path d="M3166 3733 c-86 -18 -153 -45 -293 -121 -128 -70 -250 -135 -428
-227 -71 -37 -143 -76 -160 -85 -16 -10 -84 -46 -150 -81 -66 -34 -147 -77
-180 -96 -33 -18 -67 -36 -75 -40 -8 -3 -76 -39 -150 -78 -74 -40 -178 -95
-230 -122 -52 -28 -144 -76 -205 -108 -148 -78 -205 -117 -265 -179 -60 -62
-68 -73 -107 -146 -137 -253 -87 -568 120 -769 127 -122 276 -183 452 -183
145 -1 207 20 465 157 69 37 168 90 220 117 52 28 122 65 155 83 71 38 180 96
360 191 72 37 157 83 190 101 33 18 67 36 75 40 8 3 110 57 225 118 116 62
260 138 320 170 140 74 188 107 249 169 62 64 105 132 140 218 34 86 41 131
40 248 -2 247 -142 465 -370 572 -45 20 -103 42 -130 48 -79 17 -193 18 -268
3z"/>
<path d="M4905 2755 c-90 -19 -143 -43 -397 -178 -128 -68 -282 -150 -343
-182 -60 -33 -141 -76 -180 -96 -38 -21 -124 -65 -190 -100 -66 -34 -124 -65
-130 -69 -5 -4 -77 -42 -160 -85 -82 -43 -154 -81 -160 -85 -5 -4 -77 -42
-160 -85 -82 -43 -163 -85 -180 -95 -16 -9 -84 -46 -150 -80 -66 -35 -176 -93
-245 -130 -69 -37 -179 -95 -245 -130 -66 -34 -142 -75 -170 -90 -27 -15 -99
-53 -160 -85 -60 -32 -130 -73 -155 -91 -132 -96 -222 -240 -257 -414 -7 -34
-7 -189 0 -220 13 -54 16 -67 31 -108 31 -86 81 -165 146 -231 78 -80 157
-129 265 -166 68 -24 97 -28 190 -29 134 -1 204 17 330 81 83 42 265 139 800
423 39 21 115 61 170 90 55 29 132 69 170 90 39 20 108 58 155 82 47 25 157
84 245 130 88 47 210 111 270 143 61 32 137 72 170 90 147 79 326 174 505 268
63 33 150 80 194 103 43 24 80 44 83 44 10 0 90 61 129 97 214 203 263 519
122 786 -127 239 -427 378 -693 322z"/>
</g>
</svg>
